PathFileType	4	(X/Y/Z)	D:\Share\Shared_Data\Ergonomics\Sit To Stand Pertubation\S2\Perturbed.trc
DataRate	CameraRate	NumFrames	NumMarkers	Units	OrigDataRate	OrigDataStartFrame	OrigNumFrames	
100	100	17	18	m	100	8766	201
Frame#	Time	R_Toe			R_ASIS			R_Pelvis			V_Sacral			L_Pelvis			L_ASIS			Clavical			R_Acromium			L_Acromium			Sternum			Torso			R_Thigh_Med			R_Thigh_Lat			R_Thigh			R_Shank_Med			R_Shank_Lat			R_Shank			R_Heel			
		X1	Y1	Z1	X2	Y2	Z2	X3	Y3	Z3	X4	Y4	Z4	X5	Y5	Z5	X6	Y6	Z6	X7	Y7	Z7	X8	Y8	Z8	X9	Y9	Z9	X10	Y10	Z10	X11	Y11	Z11	X12	Y12	Z12	X13	Y13	Z13	X14	Y14	Z14	X15	Y15	Z15	X16	Y16	Z16	X17	Y17	Z17	X18	Y18	Z18	

8766	87.65	0.43120233	0.073047226	0.14697389	0.085459213	0.66925281	0.12524068	0.016683777	0.70615973	0.16950046	-0.13545537	0.69744403	0.017562649	-0.019292761	0.72032892	-0.16256427	0.071340393	0.69181921	-0.14506248	0.36874533	0.91907581	-0.014916463	0.3198461	1.0151984	0.1850316	0.31967426	1.0133426	-0.20185252	0.29849841	0.77434393	-0.0091498013	0.35047354	0.8881806	-0.12200217	0.41219904	0.48885187	0.12666574	0.3824183	0.50013632	0.22950056	0.24728847	0.63991541	0.17790417	0.29933731	0.11114549	0.11175538	0.27589862	0.09738279	0.20354153	0.35605154	0.34919836	0.24047981	0.19390948	0.058392998	0.14844054
8767	87.66	0.43119269	0.072872688	0.1468569	0.090468987	0.67388373	0.12523604	0.022065573	0.7112475	0.16975737	-0.1305656	0.70319183	0.017999325	-0.014617173	0.72525623	-0.16244411	0.075803658	0.6962757	-0.14511076	0.37174854	0.9259303	-0.01500659	0.32274689	1.0213783	0.18517799	0.32216599	1.0198388	-0.20194589	0.30263068	0.78084729	-0.0092084265	0.35380539	0.8948703	-0.12214651	0.41553363	0.4876546	0.12491059	0.38641605	0.49951932	0.22780072	0.25318271	0.64110492	0.17681674	0.29943369	0.11096689	0.11160351	0.27614331	0.097412094	0.20351814	0.35862415	0.34887787	0.23936992	0.19390781	0.058375519	0.14846799
8768	87.67	0.43119824	0.072734894	0.14673512	0.095311043	0.67883197	0.12523074	0.027298607	0.71669116	0.17002896	-0.12579973	0.70938086	0.018440172	-0.010118146	0.73055042	-0.16231241	0.08008815	0.70105756	-0.14516216	0.37474664	0.93323224	-0.015076632	0.32551416	1.027967	0.18535558	0.32444952	1.0267294	-0.20201062	0.30658679	0.78778436	-0.0092132072	0.35704468	0.90194635	-0.12225426	0.41852747	0.48652344	0.1231467	0.39010046	0.49896161	0.22608371	0.25887155	0.64242102	0.17574997	0.29949084	0.11078902	0.11145083	0.27635953	0.097422623	0.20350679	0.36094791	0.34861566	0.238258	0.19389993	0.058349792	0.14850508
8769	87.68	0.4312153	0.072634689	0.14660446	0.099977028	0.68407336	0.12521671	0.032369984	0.72246149	0.17030002	-0.12115907	0.7159787	0.018866961	-0.0057935448	0.73619043	-0.16217862	0.084194778	0.70614722	-0.14522798	0.37772717	0.94095288	-0.015133094	0.32816125	1.0349565	0.18555411	0.32653195	1.0339968	-0.2020457	0.31036365	0.79513739	-0.0091718998	0.36018375	0.90939746	-0.12233219	0.42117657	0.48546542	0.12138621	0.39347128	0.49846558	0.22436343	0.26434698	0.64385614	0.17471901	0.29951349	0.11061494	0.11129866	0.27654865	0.097417358	0.20350494	0.3630307	0.34841074	0.23715033	0.19388658	0.058317703	0.14854926
8770	87.69	0.43123712	0.072574974	0.14646065	0.10446703	0.68957843	0.12519122	0.037278137	0.7285257	0.17056131	-0.11663976	0.72295258	0.019266649	-0.0016320354	0.74215198	-0.16205031	0.08813166	0.71151917	-0.14531499	0.38066086	0.94906409	-0.015181922	0.33069806	1.042334	0.18576465	0.32841724	1.0416224	-0.20205222	0.31396478	0.80288727	-0.0090964546	0.36320746	0.91721271	-0.12239093	0.42348071	0.48448511	0.11964526	0.39653192	0.49803265	0.22265532	0.26961203	0.64540228	0.17373074	0.29950635	0.11044852	0.11115038	0.27671146	0.097400566	0.20350948	0.36488019	0.34826099	0.23605283	0.1938685	0.058281193	0.14859906
8771	87.7	0.43125601	0.072559883	0.14630096	0.1087893	0.69531378	0.12515797	0.042031986	0.73484723	0.17081061	-0.11223367	0.73026849	0.019632401	0.0023849769	0.74840698	-0.16193289	0.091913116	0.7171405	-0.14542357	0.38350934	0.9575387	-0.015227027	0.33313101	1.0500819	0.18598048	0.33011105	1.049587	-0.20203307	0.31739917	0.81101251	-0.0090018826	0.3660968	0.92538123	-0.1224437	0.4254447	0.48358578	0.11794447	0.39928687	0.49766235	0.22097446	0.27467624	0.64705072	0.1727886	0.29947296	0.11029348	0.11100998	0.27684784	0.097376625	0.20351743	0.3665036	0.34816425	0.23497437	0.19384628	0.058242222	0.14865398
8772	87.71	0.4312652	0.072591843	0.14612592	0.1129593	0.70124945	0.12512696	0.046647255	0.7413905	0.17105054	-0.10792843	0.73789014	0.019961576	0.0062811284	0.7549256	-0.16183	0.095559853	0.72297351	-0.14554691	0.38623431	0.96635266	-0.01527041	0.33546332	1.0581801	0.18619743	0.33162457	1.057876	-0.20199117	0.32067978	0.81949048	-0.008904726	0.36883228	0.93389124	-0.12250391	0.42708081	0.48277048	0.1163068	0.40174014	0.49735257	0.21933545	0.27955151	0.64879199	0.1718972	0.2994158	0.11015254	0.11088019	0.27695718	0.09734938	0.20352654	0.36790869	0.34811798	0.23392941	0.19382034	0.058202454	0.1487137
8773	87.72	0.43126038	0.072666573	0.14593883	0.11699771	0.70736804	0.12511427	0.051142021	0.74812793	0.17128618	-0.10370779	0.74578064	0.020253334	0.010082486	0.76167761	-0.16174403	0.099098778	0.72898096	-0.14566962	0.38880588	0.9754845	-0.015313295	0.33769519	1.066605	0.18641359	0.33297485	1.0664803	-0.2019292	0.32382236	0.82829816	-0.0088210564	0.37139856	0.94273035	-0.12258318	0.42841376	0.48204373	0.1147552	0.4038963	0.49710031	0.21775452	0.28424936	0.65061487	0.17106453	0.29933673	0.11002722	0.11076163	0.27703922	0.097322067	0.203535	0.36910349	0.34811975	0.23293599	0.19379091	0.058163383	0.14877733
8774	87.73	0.43124081	0.072769104	0.14574384	0.12092829	0.71366693	0.12514086	0.055533787	0.75504181	0.17152509	-0.099553558	0.75390393	0.020508692	0.013814829	0.7686347	-0.16167644	0.10256203	0.73512811	-0.14576604	0.39120715	0.98491492	-0.01535722	0.33982455	1.0753317	0.18662823	0.33418246	1.0753943	-0.20185033	0.32684439	0.83741223	-0.0087641716	0.37378949	0.95188507	-0.12269026	0.42948834	0.48141379	0.11331125	0.40576254	0.49690372	0.21625078	0.28877869	0.65250586	0.17030098	0.29923843	0.10991821	0.11065358	0.27709421	0.097297272	0.20354109	0.37009494	0.34816656	0.23201068	0.19375836	0.05812661	0.14884323
8775	87.74	0.43121085	0.072872902	0.14554338	0.12477595	0.72015259	0.12522974	0.059838127	0.76211804	0.17177663	-0.095447769	0.76222223	0.02073284	0.017501308	0.77577008	-0.16162714	0.10598499	0.74138379	-0.14579878	0.39343607	0.99462573	-0.015404444	0.34184723	1.0843351	0.18684157	0.33526807	1.0846083	-0.20175861	0.32976498	0.8468103	-0.0087426634	0.37601016	0.96134027	-0.12283039	0.43036612	0.48089093	0.11199426	0.4073501	0.49676205	0.21484465	0.29314487	0.65444916	0.16961752	0.29912482	0.10982563	0.11055487	0.27712384	0.097277039	0.20354333	0.37088943	0.34825552	0.2311655	0.19372314	0.058093853	0.14890906
8776	87.75	0.43117953	0.072941536	0.14533694	0.12856497	0.72683276	0.12539917	0.064068123	0.76933978	0.1720482	-0.091374557	0.77069446	0.020936378	0.021160166	0.78305762	-0.16159294	0.10940404	0.74772107	-0.14572116	0.39550287	1.004599	-0.015457525	0.34375735	1.0935906	0.18705443	0.33624826	1.0941093	-0.20165799	0.33260431	0.85646997	-0.0087596769	0.37807489	0.97107959	-0.12300455	0.4310961	0.48047955	0.1108191	0.40867389	0.49667581	0.2135547	0.29734998	0.65642719	0.16902432	0.29900107	0.10974911	0.11046448	0.2771312	0.09726268	0.20354089	0.37149493	0.34838422	0.23040903	0.19368605	0.058066921	0.14897195
8777	87.76	0.43116061	0.072931747	0.14512	0.13231673	0.73370972	0.12565147	0.068234489	0.77668634	0.1723399	-0.087320992	0.77927728	0.021131922	0.024802805	0.7904707	-0.16156807	0.11285421	0.75412146	-0.14548433	0.39742572	1.0148162	-0.015518011	0.34554764	1.1030743	0.18726834	0.33713263	1.1038798	-0.20155026	0.33538446	0.86636859	-0.0088136692	0.38000391	0.98108472	-0.12320947	0.43169397	0.48017334	0.10979449	0.40975162	0.49664542	0.21239456	0.30139435	0.65842267	0.16852998	0.29887411	0.10968797	0.11038169	0.27712082	0.097254448	0.20353374	0.37192352	0.34855133	0.22974713	0.19364844	0.058047943	0.14902927
8778	87.77	0.43117096	0.072798347	0.1448856	0.13604701	0.7407757	0.12596534	0.072346275	0.78413367	0.1726441	-0.083277328	0.78792859	0.021327827	0.028433018	0.79798029	-0.1615466	0.11636742	0.76058093	-0.14504866	0.39922549	1.0252582	-0.01558527	0.34720996	1.1127626	0.18748549	0.337923	1.1138962	-0.20143443	0.33812878	0.87648181	-0.0088999729	0.38182077	0.99133575	-0.12343807	0.43215997	0.47996188	0.10892429	0.41060263	0.4966709	0.21137146	0.30527853	0.66042047	0.16814056	0.29875247	0.10964161	0.11030682	0.27709897	0.097251503	0.20352274	0.37219159	0.3487569	0.22918315	0.19361215	0.058039562	0.14907965
8779	87.78	0.4312272	0.072502739	0.14462801	0.13976701	0.74800958	0.12630392	0.076412094	0.79165881	0.17295073	-0.079236534	0.79661041	0.021525068	0.032048187	0.80555408	-0.16152582	0.11997005	0.76712164	-0.14439899	0.40092151	1.0359041	-0.01565576	0.34873639	1.1226312	0.18770828	0.33861423	1.1241266	-0.20130775	0.34085922	0.88678381	-0.0090123482	0.38354916	1.0018114	-0.12368045	0.43249829	0.47983661	0.10820882	0.41124704	0.49675174	0.2104864	0.30900565	0.66240918	0.16785696	0.2986456	0.10960971	0.11024118	0.27707288	0.097252106	0.20350954	0.37231796	0.34900177	0.22871829	0.19357948	0.058044529	0.14912321
8780	87.79	0.43133994	0.072025024	0.14434749	0.14348758	0.75537537	0.12663446	0.080440971	0.7992403	0.17325169	-0.075193604	0.80528864	0.021718801	0.035642738	0.81315649	-0.16150748	0.12367791	0.7738075	-0.14356682	0.40252768	1.0467325	-0.0157222	0.35012042	1.1326541	0.18793867	0.33919888	1.1345325	-0.20116656	0.34359195	0.89724744	-0.0091440639	0.38520874	1.0124886	-0.12392545	0.43271536	0.47978943	0.10764476	0.4117052	0.49688635	0.20973499	0.31258304	0.66438092	0.1676738	0.29856216	0.10959209	0.11018691	0.2770499	0.09725399	0.20349646	0.37232114	0.34928577	0.22835156	0.19355272	0.058065125	0.14916116
8781	87.8	0.43150732	0.071379974	0.14405536	0.14722182	0.76282898	0.12693998	0.084442612	0.80685663	0.17354207	-0.071145782	0.81393127	0.021901814	0.039212658	0.82075122	-0.16149431	0.12749082	0.78073199	-0.14262817	0.40404944	1.0577238	-0.015773177	0.35135681	1.1428048	0.18817772	0.33967282	1.1450763	-0.20100722	0.3463342	0.90784509	-0.0092884521	0.38681113	1.0233428	-0.12416242	0.43281699	0.47981149	0.10722523	0.41199689	0.49707196	0.2091089	0.31602573	0.66633051	0.16758157	0.29850833	0.1095886	0.1101461	0.27703595	0.097254745	0.20348628	0.37221652	0.34960623	0.22807909	0.19353365	0.058102726	0.14919507
8782	87.81	0.43171042	0.070627243	0.14377625	0.15098459	0.77033014	0.12721619	0.088427345	0.81448511	0.17381931	-0.067092651	0.82250702	0.022069199	0.042759197	0.82830475	-0.16148531	0.13139362	0.7879408	-0.14164012	0.40548315	1.0688597	-0.015794615	0.35244083	1.1530573	0.18842604	0.34003668	1.1557256	-0.20082738	0.34908301	0.91855115	-0.0094391136	0.38835983	1.0343484	-0.12438186	0.43281021	0.47989395	0.10694086	0.4121412	0.49730466	0.20859738	0.31935602	0.66825531	0.16757043	0.29848685	0.10959889	0.11012055	0.27703497	0.097252327	0.20348163	0.37201614	0.3499581	0.22789406	0.1935231	0.058157234	0.14922626
